<svg clip-rule="evenodd" fill-rule="evenodd" height="512" image-rendering="optimizeQuality" shape-rendering="geometricPrecision" text-rendering="geometricPrecision" viewBox="0 0 173.397 173.397" width="512" xmlns="http://www.w3.org/2000/svg"><g id="Layer_x0020_1"><path d="m82.6484 77.9644c-.0009.0005-.0019.0009-.0028.0013-.2103.0955-.4438.1487-.6895.1487-.9228 0-1.6721-.7487-1.6721-1.6714v-.5016l-.3229-.323c-1.77 1.0808-3.2623 2.5738-4.3426 4.3444l.3206.3205h.5017c.9229 0 1.6705.7488 1.6705 1.6716.0006.3906-.1336.7501-.3585 1.0348-.0414.3627-.2016.7142-.4806.9917-.3237.3272-.7521.4909-1.1792.4908-.4294 0-.8578-.1635-1.1851-.4908l-.3552-.3552h-.4567c-.2406.986-.3683 2.0157-.3684 3.0745 0 1.0577.1273 2.0862.3673 3.0711h.4583l.3553-.3553c.6548-.651 1.7125-.651 2.3637.0001.2791.2786.4391.6298.4805.9918.2246.2846.3586.644.3586 1.0346.0014.9228-.7485 1.6714-1.6705 1.6713h-.502l-.3216.3217c1.0807 1.7713 2.5741 3.2645 4.3455 4.3452l.3217-.3217v-.5013c0-.926.7483-1.6711 1.6709-1.6711.3921-.0001.7525.1341 1.0374.3595.3611.042.7114.2019.9891.4796.6522.6511.6512 1.7097 0 2.3608l-.355.3551v.4613c.9853.2402 2.0142.3675 3.0724.3675 1.0587 0 2.0883-.1276 3.074-.3681v-.4604l-.3556-.3557c-.655-.6511-.6552-1.7093-.0006-2.3605.2772-.2781.6275-.438.9889-.4798.2845-.2252.6446-.3593 1.0376-.3593.9231-.0003 1.6712.7452 1.6712 1.6714v.5011l.3207.3207c1.7706-1.0808 3.2632-2.5739 4.3435-4.3448l-.3213-.3212h-.5019c-.9228 0-1.6716-.7485-1.6716-1.6713.0006-.3923.1361-.7532.3626-1.0384.0416-.3606.2005-.7103.4768-.988.6553-.6511 1.713-.6511 2.364 0l.3552.3552h.458c.24-.9849.3673-2.0134.3673-3.0711 0-1.0588-.1275-2.0885-.368-3.0745h-.4568l-.3549.3549c-.3277.3275-.7564.4912-1.18.4911-.4292 0-.8575-.1635-1.1848-.4908-.2758-.2764-.4349-.6262-.4768-.9873-.227-.2854-.3626-.6465-.3626-1.0392.0014-.9231.7486-1.6713 1.6716-1.6713h.5013l.3208-.3207c-1.0799-1.7701-2.5715-3.2627-4.3407-4.3434l-.3216.3217v.5017c0 .9224-.7493 1.6715-1.672 1.6715-.241 0-.4698-.0507-.6763-.142 3.2808 1.5366 5.5586 4.8716 5.558 8.7283 0 5.3064-4.3159 9.6273-9.6272 9.6275-5.3067 0-9.6273-4.3213-9.6279-9.6275 0-3.8632 2.2878-7.2031 5.5783-8.7363zm4.0508-.8948c-1.4379 0-2.8034.3172-4.0303.8853.1172-.0554.2269-.124.3273-.2039.3596-.0426.7089-.202.9856-.4758.6512-.6547.6522-1.7133.0004-2.3644l-.3543-.3543-.3671-.367-2.9767-2.9767-13.6828-13.6824-1.3904-1.3904c-.5392-.5392-1.3518-.6343-1.9858-.2853l-.4081.3156c-.6249.6531-.6137 1.6889.0297 2.33l1.0754 1.0757 16.039 16.0424c-1.77 1.0808-3.2623 2.5738-4.3426 4.3444l-16.0417-16.0414-1.0755-1.0754c-.6368-.6366-1.6618-.6511-2.3198-.0427-.0007.001-.0015.0019-.0023.0029l-.3295.4261c-.3426.6347-.246 1.4434.2877 1.9777l1.3925 1.3926 13.6801 13.6808-19.3623.0002h-1.9539c-.8174 0-1.4977.5873-1.6427 1.3632-.0082.0631-.0163.1262-.0243.1894-.0028.0392-.0042.0788-.0042.1187 0 .9226.7496 1.6713 1.6724 1.6713h1.5027 22.6983c-.2406.986-.3683 2.0157-.3684 3.0745 0 1.0577.1273 2.0862.3673 3.0711h-22.6974-1.5037c-.9226 0-1.6706.7486-1.6712 1.6712 0 .0427.0016.0849.0047.1268.0074.058.0148.116.0223.174.142.7793.8253 1.3705 1.6454 1.3705h1.9523 19.3633l-13.6813 13.6811-1.3923 1.3923c-.5342.537-.6293 1.3457-.2874 1.9785l.3306.4274c.3213.2994.731.4492 1.1418.4492.4272 0 .8554-.1638 1.1798-.4912l1.0746-1.0747 16.0408-16.0409c1.0807 1.7713 2.5741 3.2645 4.3455 4.3452l-16.0409 16.041-1.0751 1.0751c-.6406.6371-.6532 1.6638-.0419 2.3207l.4244.3283c.2479.1348.5225.2027.799.2027.4269 0 .8554-.1638 1.1829-.4877l1.3919-1.3921 13.6813-13.684-.0003 19.3659v1.9536c0 .8173.588 1.4981 1.3638 1.6428.0628.0082.1256.0163.1885.0242.0396.0028.0795.0042.1198.0042.922.0001 1.6719-.7486 1.6719-1.6714l-.0001-1.5036-.0011-22.6975c.9853.2402 2.0142.3675 3.0724.3675 1.0587 0 2.0883-.1276 3.074-.3681l-.0008 22.6978-.0001 1.5041c0 .9226.7452 1.6712 1.6712 1.6712.0398 0 .0792-.0014.1183-.0041.0639-.008.1278-.0162.1917-.0246.7748-.1454 1.362-.8258 1.362-1.6427l-.0001-1.9539-.0005-19.3658 13.6812 13.6843 1.3921 1.3924c.3273.3238.7525.4875 1.1804.4875.2767 0 .5537-.0684.8032-.2041.002-.0016.0041-.0032.0062-.0048l.416-.3219c.6093-.6572.5967-1.6841-.041-2.321l-1.0753-1.0753-16.0423-16.0416c1.7706-1.0808 3.2632-2.5739 4.3435-4.3448l16.0425 16.0432 1.0731 1.0732c.3273.3272.7554.4909 1.185.4909.4134 0 .828-.1535 1.1477-.4599l.3178-.4109c.348-.6337.2531-1.4458-.2859-1.9844l-1.3903-1.3903-13.6835-13.683h19.3665 1.9499c.9262.0001 1.6718-.7485 1.6714-1.6713 0-.9226-.744-1.6712-1.6714-1.6712h-1.5003-22.7007c.24-.9849.3673-2.0134.3673-3.0711 0-1.0588-.1275-2.0885-.368-3.0745h22.7012 1.5005c.9262 0 1.6718-.749 1.6714-1.6713 0-.9228-.744-1.6716-1.6714-1.6716h-1.9504l-19.3655.0002 13.6825-13.6827 1.3904-1.3905c.5393-.5364.6348-1.3495.2852-1.9853l-.3173-.4102c-.6536-.6197-1.6876-.6096-2.3317.0312l-1.0737 1.0737-16.0434 16.0432c-1.0799-1.7701-2.5715-3.2627-4.3407-4.3434l16.0402-16.0435 1.0751-1.0754c.6412-.6413.6523-1.6775.0303-2.3296l-.4069-.3147c-.6358-.3509-1.4495-.2564-1.9872.2836l-1.3906 1.3905-13.6827 13.6823-2.9775 2.9774-.3654.3654-.3554.3554c-.6546.6512-.6544 1.7094 0 2.3643.2775.2743.6252.4337.9851.476.095.0757.1986.1413.309.1951-1.2219-.5627-2.5809-.8767-4.0119-.8767z" fill="#83dbf2"/><g id="_265626176" fill="#1865c1"><path id="_265628000" d="m86.6992 77.0696c-5.3071 0-9.6291 4.3212-9.6291 9.6311.0006 5.3062 4.3212 9.6275 9.6279 9.6275 5.3113-.0002 9.6272-4.3211 9.6272-9.6275.0008-5.3101-4.3175-9.631-9.626-9.6311zm0 22.6013c-7.1528 0-12.9716-5.8183-12.9716-12.9702.001-7.1519 5.8184-12.9737 12.9704-12.9737 7.1522-.0003 12.97 5.8219 12.97 12.9737 0 7.1516-5.8182 12.9702-12.9688 12.9702z"/><path id="_265627544" d="m86.6992 51.265c-19.5373 0-35.4336 15.8952-35.4336 35.4357.0004 19.5369 15.8951 35.432 35.4324 35.432 19.5415-.0001 35.4353-15.8949 35.4353-35.432.0004-19.5407-15.895-35.4354-35.4341-35.4357zm0 74.2101c-21.3799 0-38.7761-17.3954-38.7761-38.7744.0008-21.3825 17.3956-38.7781 38.7749-38.7781 21.3824-.0002 38.7779 17.3957 38.7779 38.7781 0 21.3787-17.3959 38.7747-38.7767 38.7744z"/><path id="_265627856" d="m86.6992 38.0057c-26.8499 0-48.6927 21.8459-48.6927 48.695.0008 26.8455 21.842 48.6912 48.6915 48.6912 26.8492-.0001 48.6912-21.8456 48.6912-48.6912.0003-26.8493-21.8424-48.6947-48.69-48.695zm0 100.729c-28.6925 0-52.0353-23.3427-52.0353-52.0337.0012-28.6947 23.3428-52.0373 52.0341-52.0373 28.6951-.0002 52.0337 23.3428 52.0337 52.0373.0014 28.6909-23.3394 52.0339-52.0325 52.0337z"/><path id="_265627688" d="m81.9561 38.2286c-.9228 0-1.6721-.7484-1.6721-1.671l.0004-10.8639c0-.9225.7483-1.6711 1.6709-1.6711.9238 0 1.6714.7487 1.6714 1.6714l.0013 10.8636c0 .9224-.7499 1.6713-1.6719 1.671zm9.4874 0c-.926 0-1.6712-.7484-1.6712-1.671l.001-10.8674c0-.9225.744-1.671 1.6702-1.671.9231-.0001 1.6712.7486 1.6712 1.6713l.0008 10.8671c0 .9224-.7493 1.6713-1.672 1.671zm-9.4874 39.8858c-.9228 0-1.6721-.7487-1.6721-1.6714l.0004-26.5499c0-.9228.7483-1.6712 1.6709-1.6712.9238-.0003 1.6714.7487 1.6714 1.6714l.0013 26.5496c0 .9224-.7499 1.6715-1.6719 1.6715zm9.4874 0c-.926 0-1.6712-.7487-1.6712-1.6714l.001-26.5499c0-.9228.744-1.6712 1.6702-1.6712.9231-.0003 1.6712.7487 1.6712 1.6714l.0008 26.5496c0 .9224-.7493 1.6715-1.672 1.6715z"/><path id="_265627328" d="m86.8338 13.4827c-2.2626 0-4.5546.411-5.8046 1.2258-.3923.2576-.5782.4839-.5466.679l.0008-.0002c.9604 5.853 2.13 8.3915 2.9449 9.4884.3596.4874 1.5841.975 3.231.975 1.6819-.0003 2.9596-.5014 3.3079-.975.815-1.0971 1.9848-3.6351 2.9424-9.4882.0209-.115.059-.3587-.5434-.7486-1.1829-.7731-3.346-1.1561-5.5324-1.1562zm-.1707 15.7105c-2.6276 0-4.8436-.8668-5.923-2.3258-1.5244-2.0582-2.6879-5.6373-3.555-10.9402v-.0001c-.1488-.9123-.087-2.6462 2.0159-4.018 3.5277-2.2981 11.5149-2.3399 14.9899-.0732 2.1146 1.3789 2.1726 3.1547 2.0194 4.0913-.8699 5.3064-2.0334 8.8824-3.5549 10.9402-1.0818 1.4551-3.3217 2.3259-5.9923 2.3258z"/><path id="_265627496" d="m118.801 49.5625c-.4277 0-.8565-.1636-1.1838-.4909-.651-.6513-.6512-1.7096 0-2.3642l7.6848-7.6813c.6518-.6545 1.7095-.6544 2.3641.0001.6522.651.651 1.7096 0 2.3642l-7.6836 7.6809c-.3275.3275-.7531.4913-1.1815.4912zm6.7079 6.7062c-.4296 0-.8583-.1636-1.1821-.4909-.6545-.6513-.6545-1.7097 0-2.3608l7.686-7.6847c.6503-.6546 1.7083-.6545 2.3629.0001.6518.6509.6512 1.7096 0 2.3607l-7.6872 7.6879c-.3241.324-.7528.4878-1.1796.4877zm-34.9114 21.4939c-.4278 0-.853-.1637-1.1805-.4874-.6544-.6549-.6546-1.7131 0-2.3643l18.7716-18.771c.6518-.6546 1.7093-.6546 2.3638.0001.6525.6509.6511 1.7094 0 2.3606l-18.7703 18.7743c-.3275.3239-.7563.4877-1.1846.4877zm6.7108 6.7096c-.4292 0-.8575-.1635-1.1848-.4908-.6499-.6513-.6514-1.7097 0-2.3643l18.7714-18.7711c.6547-.6514 1.7124-.6511 2.3638 0 .6554.6546.6546 1.7132 0 2.3643l-18.7704 18.7708c-.3277.3275-.7564.4912-1.18.4911z"/><path id="_265627784" d="m131.372 30.9027h.0031zm1.7752.8289c-.2053 0-.3457.0488-.4187.1463-3.4608 4.8187-4.4289 7.4408-4.6275 8.7918-.09.5986.4319 1.8106 1.595 2.9771 1.1917 1.187 2.451 1.7374 3.0293 1.6504 1.351-.2022 3.9727-1.1665 8.7918-4.631.0942-.0696.2924-.2089.1461-.9157-.594-2.8169-5.1948-7.3609-8.0711-7.9667-.1739-.0349-.3202-.0522-.4449-.0522zm-.5328 16.9151c-1.6672 0-3.5974-.9539-5.2793-2.6357-1.8593-1.8597-2.8098-4.0391-2.5417-5.8322.3768-2.5315 2.0857-5.8844 5.2228-10.2508l.0004-.0002c.5405-.7486 1.8137-1.9288 4.265-1.4135 4.1239.867 9.7948 6.4868 10.6514 10.5468.5187 2.4685-.6929 3.7674-1.4661 4.3211-4.3626 3.1371-7.7158 4.8433-10.2508 5.2193-.1943.0311-.3968.0453-.6017.0452z"/><path id="_265627592" d="m123.502 83.6262h-26.546c-.9228 0-1.6716-.7487-1.6716-1.6713.0014-.9231.7486-1.6713 1.6716-1.6713l26.546-.0003c.9274 0 1.6714.7488 1.6714 1.6716.0004.9223-.7452 1.6713-1.6714 1.6713zm24.2033 0h-10.863c-.923 0-1.6724-.7487-1.6724-1.6713.0004-.9231.7486-1.6713 1.6712-1.6713l10.8642-.0003c.923 0 1.6708.7488 1.6708 1.6716.0011.9223-.7486 1.6713-1.6708 1.6713zm-24.2033 9.4881h-26.546c-.9228 0-1.6716-.7485-1.6716-1.6713.0014-.9226.7486-1.6712 1.6716-1.6712h26.546c.9274 0 1.6714.7486 1.6714 1.6712.0004.9228-.7452 1.6714-1.6714 1.6713zm24.2064 0h-10.8661c-.923 0-1.6724-.7485-1.6724-1.6713.0004-.9226.7486-1.6712 1.6712-1.6712h10.8673c.9229 0 1.6712.7486 1.6712 1.6712.0008.9228-.7487 1.6714-1.6712 1.6713z"/><path id="_265627808" d="m157.744 78.8347h.0032zm.3133 1.6472c-.0172 0-.0322.0001-.0464.0036l.001-.0001c-5.8539.9573-8.3921 2.1275-9.4924 2.9423-.4838.3583-.9751 1.5842-.9751 3.2347.0008 1.6781.5049 2.9561.9751 3.3078 1.1003.811 3.6385 1.9848 9.4914 2.9423.1153.0173.3554.0556.7488-.5467 1.5742-2.4131 1.532-8.8754-.0697-11.3371-.2393-.3659-.4525-.5467-.6327-.5468zm.0517 15.7799c-.2398 0-.453-.0206-.6378-.052-5.3021-.867-8.882-2.0299-10.9399-3.5549-1.4586-1.0796-2.3295-3.3219-2.3295-5.9925.0014-2.6289.8705-4.8399 2.3295-5.9193 2.0591-1.5253 5.6372-2.6881 10.9399-3.5585v-.0002c.9136-.1496 2.6464-.0833 4.0183 2.0198 2.2993 3.5269 2.3364 11.5111.0731 14.9896-1.1094 1.6989-2.4756 2.0683-3.4536 2.068z"/><path id="_265627736" d="m116.08 111.043c-.4296 0-.8577-.1637-1.185-.4909l-18.7706-18.7714c-.6503-.6545-.6518-1.7093-.0004-2.3639.6553-.6511 1.713-.6511 2.364 0l18.7716 18.771c.655.6545.6542 1.7131-.0004 2.3643-.3237.3271-.7521.4909-1.1792.4909zm-6.7109 6.7062c-.4279 0-.8531-.1637-1.1804-.4875l-18.7706-18.7748c-.655-.6511-.6552-1.7093-.0006-2.3605.6524-.6545 1.7097-.6545 2.3643 0l18.7717 18.771c.6519.6511.6505 1.7097-.0006 2.3643-.3268.3237-.7556.4875-1.1838.4875zm23.8241 10.404c-.4278 0-.8573-.1601-1.1846-.4875l-7.6809-7.6845c-.6549-.6514-.6549-1.7097-.0004-2.3643.6523-.6512 1.7099-.6511 2.3609 0l7.6848 7.6845c.6519.651.6509 1.7097-.0002 2.3643-.3272.3273-.7556.4875-1.1796.4875zm-6.7063 6.7131c-.4276 0-.8575-.1636-1.1848-.4909l-7.6836-7.685c-.6518-.6545-.652-1.7127-.0008-2.3639.6558-.6511 1.713-.6511 2.3643 0l7.685 7.6846c.6549.6546.6541 1.7132-.0004 2.3643-.3226.3272-.7521.4909-1.1797.4909z"/><path id="_265626584" d="m132.589 128.09c-.633 0-1.7582.5258-2.8376 1.6086-1.186 1.1871-1.7375 2.4443-1.6507 3.0258.203 1.3509 1.1667 3.9729 4.631 8.792.0672.0972.2089.2924.916.1461 2.8177-.5954 7.3571-5.195 7.9665-8.0711.0941-.4562.0625-.7485-.094-.86 0-.0035-.0034-.0035-.0034-.0035-4.8147-3.4612-7.4376-4.4255-8.7886-4.6275-.045-.007-.0904-.0104-.1392-.0104zm.6033 16.9671c-1.7377 0-2.7133-.9468-3.1764-1.5909-3.1365-4.3632-4.8432-7.716-5.2193-10.2473-.2676-1.797.6998-3.9938 2.5903-5.8845 1.8568-1.856 4.0428-2.8064 5.8324-2.5418 2.5317.376 5.8843 2.0856 10.2508 5.2229l.0008-.0003c.7489.5398 1.9316 1.811 1.4128 4.2656-.8689 4.1226-6.4866 9.7982-10.5502 10.6513-.4095.0866-.7938.1253-1.1412.125z"/><path id="_265626632" d="m81.9561 125.176c-.9228 0-1.6721-.7486-1.6721-1.6712l.0004-26.5465c0-.926.7483-1.6711 1.6709-1.6711.9238-.0003 1.6714.7452 1.6714 1.6714l.0013 26.546c0 .9228-.7499 1.6715-1.6719 1.6714zm9.4874 0c-.926 0-1.6712-.7486-1.6712-1.6712l.001-26.5465c0-.926.744-1.6711 1.6702-1.6711.9231-.0003 1.6712.7452 1.6712 1.6714l.0008 26.546c0 .9228-.7493 1.6715-1.672 1.6714zm0 24.1991c-.926 0-1.6712-.7448-1.6712-1.671l.001-10.864c0-.9225.744-1.671 1.6702-1.671.9231 0 1.6712.7487 1.6712 1.6713l.0008 10.8636c0 .926-.7493 1.6714-1.672 1.6711zm-9.4874.0034c-.9228 0-1.6721-.7482-1.6721-1.671l.0004-10.8674c0-.9225.7483-1.671 1.6709-1.671.9238 0 1.6714.7487 1.6714 1.6713l.0013 10.8671c0 .9225-.7499 1.6713-1.6719 1.671z"/><path id="_265627208" d="m86.7367 147.547c-1.6781 0-2.9569.5015-3.3084.975-.811 1.0967-1.9849 3.6351-2.9424 9.4882-.0167.1182-.0592.3587.5433.7521 2.4172 1.5703 8.8789 1.5321 11.3409-.0731.3944-.258.5744-.4839.5429-.679l.0004-.0001c-.9574-5.853-2.128-8.3913-2.9427-9.4881-.3571-.4842-1.5843-.9749-3.234-.975zm-.1599 15.6894c-2.8374 0-5.6555-.5569-7.372-1.6746-2.1137-1.3789-2.1693-3.1546-2.0162-4.0913.8677-5.3032 2.0301-8.8824 3.555-10.9401 1.081-1.4555 3.3183-2.3259 5.9925-2.3259 2.6268-.0004 4.8399.8704 5.9193 2.3259 1.5255 2.0577 2.688 5.6372 3.5583 10.9401.1498.9121.0839 2.6464-2.0192 4.0182-1.7857 1.1629-4.7112 1.7479-7.6177 1.7477z"/><path id="_265627040" d="m57.322 111.043c-.4294 0-.8577-.1637-1.185-.4909-.6499-.6514-.6512-1.7096 0-2.3642l18.7715-18.7712c.6548-.651 1.7125-.651 2.3637.0001.6556.6545.6546 1.7097 0 2.3643l-18.7704 18.7707c-.3244.3274-.7526.4912-1.1798.4912zm6.7062 6.7062c-.4294 0-.8542-.1637-1.1815-.4875-.6534-.6548-.6548-1.713 0-2.3642l18.771-18.7711c.6518-.6545 1.7095-.6545 2.3641 0 .6522.6511.6512 1.7097 0 2.3608l-18.7707 18.7743c-.3275.3239-.756.4877-1.1829.4877zm-23.8243 10.4074c-.4277 0-.8533-.1635-1.1808-.4874-.6539-.6548-.6545-1.7131 0-2.3642l7.6849-7.6883c.6549-.651 1.713-.6509 2.3642.0002.652.6544.6511 1.7131 0 2.3643l-7.6837 7.6877c-.3275.3241-.7566.4877-1.1846.4877zm6.7094 6.7062c-.4246 0-.853-.1636-1.1805-.4909-.6496-.6513-.651-1.7096 0-2.3642l7.6861-7.6813c.6502-.651 1.7083-.651 2.3593.0001.6554.651.6546 1.7097 0 2.3643l-7.6803 7.6809c-.3275.3274-.7563.4911-1.1846.4911z"/><path id="_265627184" d="m40.7994 128.094c-.0455 0-.0874.0036-.1293.007-1.3498.2019-3.9728 1.17-8.7919 4.631-.093.0693-.2924.2125-.1425.9158.5963 2.8165 5.1948 7.3607 8.0675 7.9666.4603.0973.7521.0626.8635-.094 3.4654-4.8191 4.4292-7.4409 4.6309-8.7919.088-.5955-.4317-1.8106-1.5982-2.977-1.1059-1.1074-2.2735-1.6575-2.9-1.6575zm-.5296 16.9187c-.351 0-.7347-.0383-1.156-.1288-4.1181-.867-9.7946-6.4868-10.6476-10.5467-.5214-2.469.6929-3.7675 1.4625-4.3211 4.3666-3.134 7.7193-4.8433 10.2506-5.2193 1.7936-.2685 3.9938.7033 5.8844 2.5904 1.8571 1.8594 2.8064 4.0391 2.5418 5.8323-.3792 2.5311-2.0858 5.8844-5.2229 10.2507l.0006-.0001c-.4497.6232-1.4003 1.5427-3.1134 1.5426z"/><path id="_265626800" d="m36.5547 83.6262h-10.8662c-.9229 0-1.6722-.7487-1.6722-1.6713.0004-.9231.7486-1.6713 1.6712-1.6713l10.8672-.0003c.9261 0 1.6713.7488 1.6713 1.6716.0006.9223-.7452 1.6713-1.6713 1.6713zm39.8861 0h-26.5458c-.9228 0-1.6724-.7487-1.6724-1.6713.0006-.9231.7486-1.6713 1.6712-1.6713l26.547-.0003c.9229 0 1.6705.7488 1.6705 1.6716.0014.9223-.7485 1.6713-1.6705 1.6713zm-39.8861 9.4881h-10.8599c-.926 0-1.6717-.7485-1.6717-1.6713.0014-.9226.7451-1.6712 1.6713-1.6712h10.8603c.9261 0 1.6713.7486 1.6713 1.6712.0006.9228-.7452 1.6714-1.6713 1.6713zm39.8861 0h-26.5458c-.9228 0-1.6724-.7485-1.6724-1.6713.0006-.9226.7486-1.6712 1.6712-1.6712h26.547c.9229 0 1.6705.7486 1.6705 1.6712.0014.9228-.7485 1.6714-1.6705 1.6713z"/><path id="_265627256" d="m15.3018 80.4783c-.1363 0-.3524.0734-.6657.5538-1.5733 2.4127-1.5323 8.8754.073 11.3371.259.3933.4838.5781.6788.5433v-.0003c5.8539-.9573 8.3916-2.1272 9.4884-2.942.4847-.3587.9749-1.5842.9749-3.2347.0002-1.6784-.5015-2.9561-.9749-3.3043-1.0962-.8148-3.6351-1.9847-9.4884-2.9457-.0234-.0036-.0521-.007-.0861-.0072zm.0173 15.7835c-.9574 0-2.3024-.3688-3.4094-2.068-2.3003-3.5274-2.3401-11.5112-.0733-14.9861 1.3768-2.1138 3.1512-2.1728 4.0913-2.0195 5.3031.8665 8.8824 2.0298 10.9403 3.5549 1.456 1.0792 2.3258 3.3218 2.3258 5.9924.0014 2.6285-.8706 4.8399-2.3258 5.9228-2.057 1.5215-5.6372 2.688-10.9403 3.555-.1762.0277-.383.0488-.6086.0485z"/><path id="_265626608" d="m54.5987 49.5625c-.4277 0-.8575-.1636-1.1812-.4909l-7.6873-7.6846c-.6518-.6549-.652-1.7096-.0007-2.3642.6557-.6512 1.713-.6511 2.3642 0l7.6849 7.6845c.655.6546.6542 1.7132-.0004 2.3643-.3223.3272-.7519.491-1.1795.4909zm-6.7093 6.7062c-.4246 0-.8541-.1601-1.1814-.4874l-7.6808-7.685c-.655-.651-.655-1.7093-.0004-2.3639.6522-.6511 1.7097-.6511 2.3607 0l7.6849 7.6846c.6518.651.6509 1.7097-.0002 2.3643-.3273.3272-.7556.4875-1.1828.4874zm34.9098 21.4939c-.4247 0-.8544-.1637-1.1817-.4874l-18.7708-18.7749c-.6534-.6511-.6548-1.7093 0-2.3603.6518-.6547 1.7095-.6547 2.3642 0l18.7713 18.7708c.6518.6511.6508 1.7097-.0004 2.3644-.3271.3236-.7555.4874-1.1826.4874zm-6.7062 6.7096c-.4294 0-.8578-.1635-1.1851-.4908l-18.7705-18.7714c-.6503-.651-.6516-1.7093-.0004-2.364.6554-.6514 1.713-.6511 2.3643 0l18.7715 18.771c.655.6546.654 1.7133-.0006 2.3644-.3237.3272-.7521.4909-1.1792.4908z"/><path id="_265627016" d="m31.8792 40.6694c4.8181 3.4612 7.4401 4.4294 8.7909 4.6278.5931.0905 1.8107-.4318 2.9773-1.5982 1.1882-1.1874 1.7338-2.4443 1.6469-3.0258-.197-1.3514-1.1665-3.9728-4.6276-8.7919-.0695-.0976-.2123-.2959-.9156-.1462-2.8204.5954-7.3609 5.195-7.9667 8.0711-.0963.4558-.0662.7486.0938.8635zm8.9139 7.9808c-.21 0-.4155-.0173-.6138-.0452-2.5309-.3763-5.8844-2.0856-10.2506-5.2228l.0013-.0001c-.7536-.5398-1.9341-1.8106-1.415-4.2654.8682-4.1229 6.4865-9.7946 10.5467-10.6511 2.4663-.5227 3.764.6929 4.3175 1.4659 3.1377 4.3628 4.8467 7.7159 5.2229 10.2507.2682 1.7932-.7035 3.9904-2.5906 5.8811-1.649 1.6503-3.5585 2.587-5.2184 2.5869z"/><path id="_265626992" d="m130.432 86.7004h.003z"/><path id="_265625744" d="m42.9648 88.3718c-.9213 0-1.6713-.7484-1.6713-1.6711.001-.9263.7488-1.6713 1.6713-1.6713v-.0001c.9228 0 1.6713.7453 1.6713 1.6714.0005.9225-.7487 1.6714-1.6713 1.6711z"/><path id="_265626296" d="m54.591 56.9579c-.6515-.6515-.6526-1.711-.0002-2.3635.6557-.6543 1.7113-.6522 2.3636 0h.0001c.6525.6525.6548 1.7087-.0001 2.3636-.6519.6528-1.7112.6525-2.3634-.0001z"/><path id="_265626152" d="m85.0249 42.9659c0-.9213.7484-1.6713 1.6711-1.6713.9263.001 1.6713.7488 1.6713 1.6713h.0001c0 .9228-.7453 1.6712-1.6714 1.6712-.9225.0006-1.6714-.7486-1.6711-1.6712z"/><path id="_265626224" d="m116.439 54.5921c.6515-.6515 1.711-.6527 2.3635-.0002.6543.6557.6522 1.7113 0 2.3636v.0001c-.6525.6525-1.7087.6547-2.3636-.0001-.6528-.6519-.6525-1.7112.0001-2.3634z"/><path id="_265625912" d="m130.431 85.026c.9212 0 1.6712.7484 1.6712 1.6711-.0009.9263-.7488 1.6713-1.6712 1.6713v.0001c-.9229 0-1.6713-.7453-1.6713-1.6714-.0006-.9225.7486-1.6714 1.6713-1.6711z"/><path id="_265625960" d="m118.805 116.44c.6515.6515.6527 1.711.0002 2.3634-.6557.6543-1.7113.6523-2.3636 0l-.0001.0001c-.6525-.6525-.6547-1.7088.0001-2.3636.6519-.6528 1.7112-.6525 2.3634.0001z"/><path id="_265625888" d="m88.3707 130.432c0 .9213-.7484 1.6713-1.6711 1.6713-.9263-.001-1.6713-.7488-1.6713-1.6713h-.0001c0-.9228.7453-1.6713 1.6714-1.6713.9225-.0005 1.6714.7487 1.6711 1.6713z"/><path id="_265626416" d="m56.9568 118.806c-.6515.6515-1.711.6526-2.3634.0002-.6543-.6557-.6523-1.7113 0-2.3636l-.0001-.0001c.6525-.6525 1.7088-.6548 2.3636.0001.6528.6519.6525 1.7112-.0001 2.3634z"/></g><path d="m135.389 86.7007c.0003-25.2809-19.3651-46.1255-44.0398-48.4747-.0436-.0024-.0868-.0065-.1294-.0121-1.4887-.1378-2.9967-.2082-4.5208-.2082-1.5226 0-3.029.0702-4.5163.2077-.0453.0061-.0912.0104-.1376.0129-24.675 2.3505-44.0388 23.1948-44.0388 48.4744.0008 25.2762 19.3632 46.1201 44.0377 48.4706.0466.0025.0928.0068.1383.013 1.487.1374 2.9932.2076 4.5155.2076 1.525 0 3.0338-.0705 4.5234-.2084.0004 0 .0008-.0001.0013-.0001.0413-.0054.0831-.0094.1253-.0117 24.6761-2.3488 44.0412-23.1934 44.0412-48.471zm-48.6932-45.4061c.9263.001 1.6713.7488 1.6714 1.6713 0 .9228-.7453 1.6712-1.6714 1.6712-.9225.0006-1.6714-.7486-1.6711-1.6712 0-.9213.7484-1.6713 1.6711-1.6713zm5.0592 6.9562c6.8627.8977 13.1668 3.5967 18.4206 7.6055.135.0745.262.169.3766.2837.0103.0102.0204.0206.0303.031 2.4728 1.9388 4.705 4.1711 6.6439 6.6438.0108.0102.0215.0206.0321.0312.1154.1153.2105.2431.2852.379 4.9747 6.5209 7.932 14.6594 7.932 23.4757 0 8.8141-2.9569 16.9512-7.9309 23.4713-.0749.1364-.1703.2645-.2863.3799-.0104.0105-.0209.0208-.0315.031-1.9361 2.4691-4.1647 4.6984-6.6332 6.6353-.0136.0146-.0274.0291-.0416.0433-.1156.1145-.244.209-.3806.2834-5.2536 4.0073-11.5568 6.7053-18.4183 7.6023-.0627.0118-.1267.02-.1917.0246-1.5932.2002-3.2161.3033-4.8626.3033-1.6466 0-3.2697-.1032-4.8629-.3034-.0639-.0046-.1268-.0127-.1885-.0242-6.8614-.8966-13.1648-3.5942-18.4186-7.6012-.1371-.0745-.266-.1695-.3825-.2848-.0143-.0143-.0282-.0288-.0419-.0435-2.4648-1.934-4.6905-4.1596-6.6246-6.6244-.0146-.0136-.029-.0275-.0432-.0417-.1167-.117-.2125-.2471-.2874-.3857-4.0073-5.2549-6.7045-11.5596-7.6-18.4224-.0103-.0571-.0178-.1151-.0223-.174-.2007-1.5953-.3042-3.2203-.3042-4.8691.0001-1.6472.1033-3.2707.3037-4.8645.0046-.0642.0127-.1274.0243-.1894.8969-6.8599 3.5935-13.1617 7.5986-18.4145.0748-.1386.1706-.2689.2873-.3863.0146-.0146.0295-.0288.0445-.0427 1.937-2.4684 4.1664-4.697 6.6355-6.633.0097-.0102.0196-.0203.0297-.0303.115-.1155.2426-.2106.3784-.2853 5.2549-4.0094 11.5604-6.7083 18.4244-7.6049.0602-.0111.1214-.019.1836-.0235 1.5939-.2004 3.2176-.3037 4.8649-.3037 1.6466 0 3.2696.1031 4.8628.3033.0659.0046.1308.013.1944.0249zm-5.0556 80.5098c.9225-.0005 1.6714.7487 1.6711 1.6713 0 .9213-.7484 1.6713-1.6711 1.6713-.9263-.001-1.6713-.7488-1.6714-1.6713 0-.9228.7453-1.6713 1.6714-1.6713zm43.7313-43.7346c.9212 0 1.6712.7484 1.6712 1.6711-.0009.9263-.7488 1.6713-1.6712 1.6714-.9229 0-1.6713-.7453-1.6713-1.6714-.0006-.9225.7486-1.6714 1.6713-1.6711zm-13.9921-30.4339c.6515-.6515 1.711-.6527 2.3635-.0002.6543.6557.6522 1.7113 0 2.3637-.6525.6525-1.7087.6547-2.3636-.0001-.6528-.6519-.6525-1.7112.0001-2.3634zm-59.4843.0023c.6525.6525.6548 1.7087-.0001 2.3636-.6519.6528-1.7112.6525-2.3634-.0001-.6515-.6515-.6526-1.711-.0002-2.3635.6557-.6543 1.7113-.6522 2.3637 0zm-13.9897 30.4349c.9228 0 1.6713.7453 1.6713 1.6714.0005.9225-.7487 1.6714-1.6713 1.6711-.9213 0-1.6713-.7484-1.6713-1.6711.001-.9263.7488-1.6713 1.6713-1.6714zm13.9921 31.413c.6528.6519.6525 1.7112-.0001 2.3634-.6515.6515-1.711.6526-2.3634.0002-.6543-.6557-.6523-1.7113-.0001-2.3637.6525-.6525 1.7088-.6548 2.3636.0001zm61.8477-.0024c.6515.6515.6527 1.711.0002 2.3634-.6557.6543-1.7113.6523-2.3637.0001-.6525-.6525-.6547-1.7088.0001-2.3636.6519-.6528 1.7112-.6525 2.3634.0001z" fill="#83dbf2"/><g fill="#e7e7e8"><path d="m86.6992 51.265c-1.035 0-2.0597.0446-3.0724.132l.0011 22.6972c.9845-.24 2.0127-.3672 3.0701-.3672 1.0589 0 2.0885.1275 3.0744.3682l.0008-22.698c-1.0132-.0875-2.0385-.1322-3.074-.1322z"/><path d="m89.7732 99.3028c-.9857.2405-2.0153.3681-3.074.3681-1.0582 0-2.0871-.1273-3.0724-.3675l.0011 22.6975c1.0119.0873 2.0359.1318 3.0701.1318 1.0356 0 2.061-.0447 3.0744-.1321z"/><path d="m75.6172 93.436-16.0408 16.0409c1.3208 1.5702 2.7751 3.0246 4.3454 4.3453l16.0409-16.041c-1.7714-1.0807-3.2648-2.5739-4.3455-4.3452z"/><path d="m74.096 83.6262h-22.6983c-.0874 1.0134-.1321 2.0388-.1321 3.0745 0 1.0345.0446 2.0588.1319 3.0711h22.6974c-.24-.9849-.3673-2.0134-.3673-3.0711.0001-1.0588.1278-2.0885.3684-3.0745z"/><path d="m122.001 83.6262h-22.7012c.2405.986.368 2.0157.368 3.0745 0 1.0577-.1273 2.0862-.3673 3.0711h22.7007c.0873-1.0123.1319-2.0366.1319-3.0711 0-1.0357-.0446-2.0611-.1321-3.0745z"/><path d="m109.477 59.576-16.0402 16.0435c1.7692 1.0807 3.2608 2.5733 4.3407 4.3434l16.0434-16.0432c-1.3204-1.5696-2.7742-3.0234-4.3439-4.3437z"/><path d="m113.821 109.479-16.0425-16.0432c-1.0803 1.7709-2.5729 3.264-4.3435 4.3448l16.0423 16.0416c1.5696-1.3202 3.0234-2.7738 4.3437-4.3432z"/><path d="m79.9611 75.6184-16.039-16.0424c-1.5702 1.3208-3.0245 2.7752-4.3453 4.3454l16.0417 16.0414c1.0803-1.7706 2.5726-3.2636 4.3426-4.3444z"/></g><path d="m45.2943 40.6732c-.197-1.3514-1.1665-3.9728-4.6276-8.7919-.0695-.0976-.2123-.2959-.9156-.1462-2.8204.5954-7.3609 5.195-7.9667 8.0711-.0963.4558-.0662.7486.0948.8632 4.8181 3.4612 7.4401 4.4294 8.7909 4.6278.5931.0905 1.8107-.4318 2.9773-1.5982 1.1882-1.1874 1.7338-2.4443 1.6469-3.0258z" fill="#83dbf2"/><path d="m86.6631 29.1932c-1.1023 0-2.1321-.1525-3.036-.4374l.0007 5.9971c1.0159-.0594 2.0396-.0895 3.0702-.0895 1.032 0 2.0571.0302 3.0745.0897l.0005-6.0078c-.9222.2913-1.9773.4479-3.1099.4479z" fill="#e7e7e8"/><path d="m86.8338 13.4827c-2.2626 0-4.5546.411-5.8046 1.2258-.3923.2576-.5782.4839-.5458.6788.9604 5.853 2.13 8.3915 2.9449 9.4884.3596.4874 1.5841.975 3.231.975 1.6819-.0003 2.9596-.5014 3.3079-.975.815-1.0971 1.9848-3.6351 2.9424-9.4882.0209-.115.059-.3587-.5434-.7486-1.1829-.7731-3.346-1.1561-5.5324-1.1562z" fill="#83dbf2"/><path d="m127.335 46.011c-.7792-.7794-1.3988-1.6148-1.8359-2.4545l-4.2586 4.2571c1.5316 1.3622 2.9825 2.8134 4.3445 4.3452l4.2658-4.2651c-.8581-.4463-1.7151-1.082-2.5158-1.8827z" fill="#e7e7e8"/><path d="m141.663 39.7505c-.594-2.8169-5.1948-7.3609-8.0711-7.9667-.1739-.0349-.3202-.0522-.4449-.0522-.2053 0-.3457.0488-.4187.1463-3.3169 4.6183-4.3441 7.2189-4.5986 8.6166-.0012.007-.0025.0141-.0038.0211-.0095.0531-.0178.1045-.0251.1541-.09.5986.4319 1.8106 1.595 2.9771 1.1917 1.187 2.451 1.7374 3.0293 1.6504.0391-.0059.0793-.0124.1206-.0195.0307-.0065.0615-.0122.0925-.0169 1.4065-.2689 4.0014-1.3039 8.5787-4.5946.0942-.0696.2924-.2089.1461-.9157z" fill="#83dbf2"/><path d="m52.1581 47.8127-4.2654-4.264c-.4462.8572-1.0815 1.7134-1.8812 2.5146-.7786.7792-1.6152 1.3993-2.4562 1.8368l4.2579 4.2578c1.3621-1.5319 2.8131-2.983 4.3449-4.3452z" fill="#e7e7e8"/><path d="m24.8763 83.4312c-1.0962-.8148-3.6351-1.9847-9.4884-2.9457-.0234-.0036-.0521-.007-.0861-.0072-.1363 0-.3524.0734-.6657.5538-1.5733 2.4127-1.5323 8.8754.073 11.3371.259.3933.4838.5781.6788.543 5.8539-.9573 8.3916-2.1272 9.4884-2.942.4847-.3587.9749-1.5842.9749-3.2347.0002-1.6784-.5015-2.9561-.9749-3.3043z" fill="#83dbf2"/><path d="m34.7538 83.6262h-6.0072c.2909.9222.4472 1.9773.4472 3.1093.0006 1.1031-.1526 2.1327-.4383 3.0363h5.998c-.0595-1.0162-.0896-2.0402-.0896-3.0711 0-1.032.0303-2.0571.0899-3.0745z" fill="#e7e7e8"/><path d="m43.6994 129.751c-1.1059-1.1074-2.2735-1.6575-2.9-1.6575-.0455 0-.0874.0036-.1293.007-.0366.0055-.0742.0115-.1128.0182-.0343.0073-.0687.0136-.1033.0188-1.4064.2699-4.002 1.3091-8.5758 4.594-.093.0693-.2924.2125-.1425.9158.5963 2.8165 5.1948 7.3607 8.0675 7.9666.4603.0973.7521.0626.8635-.094 3.4654-4.8191 4.4292-7.4409 4.6309-8.7919.088-.5955-.4317-1.8106-1.5982-2.977z" fill="#83dbf2"/><path d="m52.1584 125.586c-1.5319-1.3622-2.9831-2.8133-4.3453-4.3451l-4.2636 4.2657c.8573.4462 1.7135 1.0812 2.5142 1.8804.7788.7798 1.398 1.6159 1.8349 2.4562z" fill="#e7e7e8"/><path d="m89.9707 148.5219c-.3571-.4842-1.5843-.9749-3.234-.975-1.6781 0-2.9569.5015-3.3084.975-.811 1.0967-1.9849 3.6351-2.9424 9.4882-.0167.1182-.0592.3587.5433.7521 2.4172 1.5703 8.8789 1.5321 11.3409-.0731.3944-.258.5744-.4839.5433-.6791-.9574-5.853-2.128-8.3913-2.9427-9.4881z" fill="#83dbf2"/><path d="m89.7731 138.645c-1.0171.0595-2.0421.0897-3.0739.0897-1.0313 0-2.0557-.0302-3.0723-.0896l.0007 6.0068c.9213-.2907 1.9757-.4469 3.1085-.4469 1.1028-.0002 2.1328.1532 3.0365.439z" fill="#e7e7e8"/><path d="m132.589 128.09c-.633 0-1.7582.5258-2.8376 1.6086-1.186 1.1871-1.7375 2.4443-1.6507 3.0258.0059.0389.0123.0789.0195.12.0067.0313.0124.0628.0173.0944.2699 1.4068 1.3048 4.0018 4.5942 8.5776.0672.0972.2089.2924.916.1461 2.8177-.5954 7.3571-5.195 7.9665-8.0711.0941-.4562.0625-.7485-.094-.86 0-.0035-.0034-.0035-.0034-.0035-4.8147-3.4612-7.4376-4.4255-8.7886-4.6275-.045-.007-.0904-.0104-.1392-.0104z" fill="#83dbf2"/><path d="m125.585 121.24c-1.3621 1.5319-2.8132 2.9831-4.345 4.3453l4.2646 4.2644c.4458-.8574 1.0812-1.7136 1.8823-2.5148.7788-.7784 1.6154-1.3975 2.4565-1.8345z" fill="#e7e7e8"/><path d="m158.012 80.4854c-5.8539.9573-8.3921 2.1275-9.4924 2.9423-.4838.3583-.9751 1.5842-.9751 3.2347.0008 1.6781.5049 2.9561.9751 3.3078.0317.0234.0646.047.0987.071.0253.0165.0502.0336.0745.0514 1.1851.8037 3.7535 1.9095 9.3182 2.8199.1153.0173.3554.0556.7488-.5467 1.5742-2.4131 1.532-8.8754-.0697-11.3371-.2393-.3659-.4525-.5467-.6327-.5468-.0172 0-.0322.0001-.0454.0035z" fill="#83dbf2"/><path d="m144.641 83.6262h-5.9994c.0595 1.0174.0897 2.0425.0897 3.0745.0001 1.0309-.03 2.0549-.0894 3.0711h6.0073c-.2914-.9222-.4479-1.9773-.4479-3.1094.0006-1.1033.154-2.1329.4397-3.0362z" fill="#e7e7e8"/></g></svg>